<?xml version="1.0" encoding="utf-8"?>
<!-- Generator: Adobe Illustrator 18.0.0, SVG Export Plug-In . SVG Version: 6.00 Build 0)  -->
<!DOCTYPE svg PUBLIC "-//W3C//DTD SVG 1.1//EN" "http://www.w3.org/Graphics/SVG/1.1/DTD/svg11.dtd">
<svg version="1.1" id="Layer_1" xmlns="http://www.w3.org/2000/svg" xmlns:xlink="http://www.w3.org/1999/xlink" x="0px" y="0px"
	 viewBox="0 0 200 100" enable-background="new 0 0 200 100" xml:space="preserve">
<rect x="-15.6" y="-16.9" fill="#59CAEB" width="221.7" height="134.4"/>
<path fill="#C0D955" d="M3.3,99c0,0,7.7-5.7,4.6-13.9s-11.3-27-0.1-30c0,0-7.7,6.5,9,29.5C16.9,84.5,30.2,99.9,3.3,99z"/>
<path fill="#70A040" d="M35.5,65.6c0,0-11.5-2.8-12,5.9s-0.8,29.2-12.3,27.4c0,0,10.2-0.2,4.4-28C15.6,70.9,11.2,32.3,35.5,65.6z"/>
<path fill="#C0D955" d="M86.5,99.5c0,0,22.3-26.7-3.8-76.5c0,0,42.8,44.9,24,61.5L86.5,99.5z"/>
<path fill="#A5C965" d="M77.3,23.3c0,0-22.6,28.5,10,76c0,0-50.5-41.2-31.1-59.4L77.3,23.3z"/>
<path fill="#70A040" d="M115.2,28.5c0,0-33.4,14.3-27.5,71.5c0,0-24.7-60.3,1-67L115.2,28.5z"/>
<path fill="#C6DE83" d="M140.2,99c0,0,10.2-7.5,6.1-18.3s-14.9-35.5-0.2-39.6c0,0-10.2,8.6,11.9,38.8C158,79.9,175.6,100.2,140.2,99
	z"/>
</svg>
