<?xml version="1.0" encoding="utf-8"?>
<!-- Generator: Adobe Illustrator 18.0.0, SVG Export Plug-In . SVG Version: 6.00 Build 0)  -->
<!DOCTYPE svg PUBLIC "-//W3C//DTD SVG 1.1//EN" "http://www.w3.org/Graphics/SVG/1.1/DTD/svg11.dtd">
<svg version="1.1" xmlns="http://www.w3.org/2000/svg" xmlns:xlink="http://www.w3.org/1999/xlink" x="0px" y="0px"
	 viewBox="0 0 256 256" enable-background="new 0 0 256 256" xml:space="preserve">
<g id="Layer_2">
</g>
<g id="Layer_3">
	<g>
		<path fill="#40618C" d="M157.3,202.8c0,0-26.1-6.9-34.6-17.3l29.5-5L157.3,202.8z"/>
		<path fill="#8AB2E5" d="M18,161.4l1.8,11.4c0,0,19.2,23.2,102.9,13.7c4.6-0.5,9.4-1.1,14.4-1.9l61.6-13.2l-2-4.1L18,161.4z"/>
		<path fill="#6C95C9" d="M18,161.4c0,0-7.8-90.5,16.5-103.2c0,0,14.4-12.3,50.8-12.6c36.4-0.3,82.7,13.8,89.3,29.5
			c6.6,15.6,5.7,9.6,10.2,52.9c0,0-0.3,15.1,10.2,23.8c0,0,16.2-32.5,41.5-9.9c0,0-24.1-2.1-24.1,19.6c0,0,0.3,15.9,24.1,15.6
			c0,0-5.1,9-16.8,7.8c0,0-14.1,3-23.2-17.4l-20.2,3c0,0,4.2,29.2,12.3,37.9c0,0-35.5-5.4-59.6-31C129.3,177.3,58.9,192.4,18,161.4z
			"/>
		<circle fill="#FFFFFF" cx="54.1" cy="119.9" r="23.2"/>
		<circle cx="51" cy="120.8" r="15"/>
		
			<ellipse transform="matrix(0.7849 0.6197 -0.6197 0.7849 83.6975 -9.3198)" fill="#FFFFFF" cx="55.3" cy="115.9" rx="7.3" ry="4.4"/>
		<circle fill="#FFFFFF" cx="104.8" cy="119.9" r="23.2"/>
		<circle cx="101.7" cy="120.8" r="15"/>
		
			<ellipse transform="matrix(0.7849 0.6197 -0.6197 0.7849 94.3499 -40.577)" fill="#FFFFFF" cx="105.6" cy="115.6" rx="6.9" ry="4.4"/>
		<path d="M24.1,150c0,0,47.5,40.9,99.3,6.6C123.4,156.6,76.1,183.7,24.1,150z"/>
		
			<ellipse transform="matrix(0.9997 2.573071e-02 -2.573071e-02 0.9997 1.4557 -2.1412)" fill="#4B709F" cx="83.9" cy="55.5" rx="13.2" ry="3.6"/>
	</g>
</g>
</svg>
