<svg xmlns="http://www.w3.org/2000/svg" viewBox="0 0 150 142"><path fill="#9E2610" d="M34 110.6s-23 8.5-27.4 14.9c0 0 2.5-15.4 22.3-23.7l5.1 8.8zM42.8 118.3S27 134.8 25.9 142c0 0-4.2-14 9-29.1l7.9 5.4zM31.3 97.5S6.7 99.2 0 104.1c0 0 8.9-14.1 30.6-16.5l.7 9.9zM116 109.3s23 8.5 27.4 14.9c0 0-2.5-15.4-22.3-23.7l-5.1 8.8z"/><path fill="#D62D0E" d="M18.4 57.5s-27.1-13-6.9-45.3c0 0 6.5-14.1 27.5-12L20.6 44.1l33.3-23.8s9 17.7-8 30.6c0 0-10 7.4-15 6.5 0 0 3.3 8 8.7 11.7l2.5 2.3-6.9 8c.1.2-15-11.1-16.8-21.9z"/><path fill="#9E2610" d="M107.2 116.9s15.8 16.5 16.9 23.7c0 0 4.2-14-9-29l-7.9 5.3zM118.7 96.1s24.6 1.7 31.3 6.6c0 0-8.9-14.1-30.6-16.5l-.7 9.9z"/><path fill="#D62D0E" d="M132.2 57.5s27.1-13 6.9-45.3c0 0-6.5-14.1-27.5-12L130 44.1 96.8 20.3s-9 17.7 8 30.6c0 0 10 7.4 15 6.5 0 0-3.3 8-8.7 11.7l-2.5 2.3 6.9 8c-.1.2 14.9-11.1 16.7-21.9z"/><path fill="#D62D0E" d="M74.3 49.1s31.8-3.8 47.1 41.9c0 0 8.5 32.2-45 35.1 0 0-50.7.9-47.9-31.7.1 0 4.9-39.1 45.8-45.3z"/><ellipse fill="#FFF" cx="57" cy="87.6" rx="17" ry="17"/><ellipse fill="#FFF" cx="93" cy="86.9" rx="17" ry="17"/><ellipse cx="58" cy="86.7" rx="10.7" ry="10.7"/><ellipse cx="92" cy="85.7" rx="10.7" ry="10.7"/><path fill="#FFF" d="M91.8 77.8c1.3-1.3 4-.8 6.1 1.2s2.6 4.7 1.3 6.1c-1.3 1.3-4 .8-6.1-1.2-2-2.1-2.6-4.8-1.3-6.1zM57.9 78.4c1.3-1.3 4-.8 6.1 1.2 2 2 2.6 4.7 1.3 6.1-1.3 1.3-4 .8-6.1-1.2-2-2.1-2.6-4.8-1.3-6.1z"/><path d="M38.7 105.6s9.2 14.5 37.3 14.1c0 0 24.7 1.1 35.6-14.1 0 0-11.4 12.7-35.6 12.5 0 0-26.1.2-37.3-12.5z"/></svg>