<?xml version="1.0" encoding="utf-8"?>
<!-- Generator: Adobe Illustrator 18.0.0, SVG Export Plug-In . SVG Version: 6.00 Build 0)  -->
<!DOCTYPE svg PUBLIC "-//W3C//DTD SVG 1.1//EN" "http://www.w3.org/Graphics/SVG/1.1/DTD/svg11.dtd">
<svg version="1.1" xmlns="http://www.w3.org/2000/svg" xmlns:xlink="http://www.w3.org/1999/xlink" x="0px" y="0px"
	 viewBox="0 0 256 256" enable-background="new 0 0 256 256" xml:space="preserve">
<g id="Whale">
	<g>
		<path display="none" fill="#40618C" d="M157.3,202.8c0,0-26.1-6.9-34.6-17.3l29.5-5L157.3,202.8z"/>
		<path display="none" fill="#8AB2E5" d="M18,161.4l1.8,11.4c0,0,19.2,23.2,102.9,13.7c4.6-0.5,9.4-1.1,14.4-1.9l61.6-13.2l-2-4.1
			L18,161.4z"/>
		<path display="none" fill="#6C95C9" d="M18,161.4c0,0-7.8-90.5,16.5-103.2c0,0,14.4-12.3,50.8-12.6c36.4-0.3,82.7,13.8,89.3,29.5
			c6.6,15.6,5.7,9.6,10.2,52.9c0,0-0.3,15.1,10.2,23.8c0,0,16.2-32.5,41.5-9.9c0,0-24.1-2.1-24.1,19.6c0,0,0.3,15.9,24.1,15.6
			c0,0-5.1,9-16.8,7.8c0,0-14.1,3-23.2-17.4l-20.2,3c0,0,4.2,29.2,12.3,37.9c0,0-35.5-5.4-59.6-31C129.3,177.3,58.9,192.4,18,161.4z
			"/>
		
			<ellipse transform="matrix(0.9997 2.573071e-02 -2.573071e-02 0.9997 1.4557 -2.1412)" display="none" fill="#4B709F" cx="83.9" cy="55.5" rx="13.2" ry="3.6"/>
	</g>
</g>
<g id="Layer_5">
	<path fill="#553B8E" d="M60.9,187.1c0,0,22.2-2.2,25.2-13.7c2.9-11.5,4.6-16.6,4.6-16.6l22.9,6.3c-0.7,2-1.3,3.9-2.1,6.2
		c0,0-13.1,25.7-27.1,27.7s-36.3-1.3-49.6,11.1C34.9,208,42.1,188.1,60.9,187.1z"/>
	<path fill="#553B8E" d="M195.6,187.1c0,0-22.2-2.2-25.2-13.7c-2.9-11.5-4.6-16.6-4.6-16.6l-22.9,6.3c0.7,2,1.3,3.9,2.1,6.2
		c0,0,13.1,25.7,27.1,27.7s36.3-1.3,49.6,11.1C221.6,208,214.4,188.1,195.6,187.1z"/>
	<path fill="#8E68E0" d="M104.1,164.1c0,0,2.1,18.5-2.1,23.1s-20.9,13.5-24.6,16.9S65.1,219.4,66,229c0,0,5.9-15.2,28.5-20.2
		s26.1-17.1,32-41.5l1.5-0.1c0,0,4.2,28.5,16.9,34.9s34.9,10.2,43.5,26.2c0,0-0.5-21.1-18-28.1c0,0-20.4-9.1-19.5-21
		s0.9-17.2,0.9-17.2l-30.4-1.6l-17.5,1.9L104.1,164.1z"/>
	<path fill="#7451C1" d="M211.3,166c0,0-22,3.9-27.9-6.4c-5.9-10.3-9-14.8-9-14.8l-20.4,12.3c1.2,1.7,2.3,3.4,3.7,5.4
		c0,0,19.5,21.2,33.6,19.4s34.6-11.1,50.7-2.7C242,179.2,229.7,162,211.3,166z"/>
	<path fill="#7451C1" d="M39.6,166.4c0,0,22,3.9,27.9-6.4c5.9-10.3,9-14.8,9-14.8l20.4,12.3c-1.2,1.7-2.3,3.4-3.7,5.4
		c0,0-19.5,21.2-33.6,19.4S25,171.1,8.9,179.5C8.9,179.5,21.2,162.3,39.6,166.4z"/>
</g>
<g id="Squid">
	<path fill="#8E68E0" d="M128,20.3c0,0,37.4-1.5,60.9,61.4S164,170.1,128,168.6c-8.8-0.4-18.3-1.6-27.3-4.2
		c-27.6-8.1-50.6-29.7-35.4-82.1C65.3,82.3,88.2,20.9,128,20.3z"/>
</g>
<g id="Eyes_and_Mouth">
	<circle fill="#FFFFFF" cx="101.2" cy="99.2" r="23.2"/>
	<circle cx="101.2" cy="100.1" r="15"/>
	
		<ellipse transform="matrix(0.7849 0.6197 -0.6197 0.7849 81.7031 -44.8764)" fill="#FFFFFF" cx="105.5" cy="95.2" rx="7.3" ry="4.4"/>
	<circle fill="#FFFFFF" cx="155.1" cy="99.2" r="23.2"/>
	<circle cx="151.9" cy="100.1" r="15"/>
	
		<ellipse transform="matrix(0.7849 0.6197 -0.6197 0.7849 92.3555 -76.1336)" fill="#FFFFFF" cx="155.8" cy="94.9" rx="6.9" ry="4.4"/>
	<path d="M74.3,129.3c0,0,47.5,40.9,99.3,6.6C173.6,135.9,126.3,163,74.3,129.3z"/>
</g>
</svg>
