<svg xmlns="http://www.w3.org/2000/svg" viewBox="0 0 150 134"><path fill="#553B8E" d="M33.5 107.1s14.3-1.4 16.2-8.8c1.9-7.4 3-10.7 3-10.7l14.7 4c-.5 1.3-.8 2.5-1.4 4 0 0-8.4 16.5-17.4 17.8-9 1.3-23.4-.8-31.9 7.1 0 0 4.7-12.8 16.8-13.4zM120.1 107.1s-14.3-1.4-16.2-8.8c-1.9-7.4-3-10.7-3-10.7l-14.7 4c.5 1.3.8 2.5 1.4 4 0 0 8.4 16.5 17.4 17.8 9 1.3 23.4-.8 31.9 7.1 0 0-4.7-12.8-16.8-13.4z"/><path fill="#8E68E0" d="M61.3 92.3s1.4 11.9-1.4 14.8c-2.7 3-13.4 8.7-15.8 10.9-2.4 2.2-7.9 9.8-7.3 16 0 0 3.8-9.8 18.3-13 14.5-3.2 16.8-11 20.6-26.6l1-.1s2.7 18.3 10.9 22.4 22.5 6.5 28 16.8c0 0-.3-13.5-11.6-18 0 0-13.1-5.8-12.5-13.5s.5-11 .5-11l-19.6-1-11.3 1.2.2 1.1z"/><path fill="#7451C1" d="M130.2 93.6s-14.2 2.5-18-4.1c-3.8-6.6-5.8-9.5-5.8-9.5l-13.1 7.9c.8 1.1 1.5 2.2 2.4 3.5 0 0 12.5 13.6 21.6 12.5 9.1-1.2 22.3-7.1 32.6-1.7.1-.2-7.8-11.2-19.7-8.6zM19.8 93.8s14.2 2.5 18-4.1c3.8-6.6 5.8-9.5 5.8-9.5l13.1 7.9c-.8 1.1-1.5 2.2-2.4 3.5 0 0-12.5 13.6-21.6 12.5-9.1-1.2-22.3-7.2-32.6-1.8-.1-.1 7.8-11.1 19.7-8.5z"/><g><path fill="#8E68E0" d="M76.6 0s24.1-1 39.2 39.4-16 56.8-39.2 55.8c-5.7-.3-11.8-1-17.6-2.7-17.8-5.2-32.6-19.1-22.8-52.7C36.3 39.8 51 .4 76.6 0z"/></g><g><ellipse fill="#FFF" cx="59.4" cy="50.7" rx="14.9" ry="14.9"/><ellipse cx="59.4" cy="51.2" rx="9.7" ry="9.6"/><path fill="#FFF" d="M63.9 45.9c2 1.6 2.9 3.9 1.9 5.1-1 1.2-3.4.9-5.4-.7-2-1.6-2.9-3.9-1.9-5.1 1-1.2 3.4-.9 5.4.7z"/><ellipse fill="#FFF" cx="94.1" cy="50.7" rx="14.9" ry="14.9"/><ellipse cx="92" cy="51.2" rx="9.7" ry="9.6"/><path fill="#FFF" d="M96.3 45.7c1.9 1.5 2.7 3.7 1.7 5-1 1.2-3.3 1-5.2-.5s-2.7-3.7-1.7-5c.9-1.3 3.3-1 5.2.5z"/><path d="M42.1 70s30.6 26.3 63.9 4.2c0 0-30.5 17.4-63.9-4.2z"/></g></svg>