<svg xmlns="http://www.w3.org/2000/svg" viewBox="0 0 675.2 500"><path fill="#40618C" d="M431.2 483s-80-21-106.5-53l90.5-15.5 16 68.5z"/><path fill="#8AB2E5" d="M3.7 355.5l5.5 35s59 71.5 315.5 42c14-1.5 29-3.5 44-6L558.2 386l-6-12.5-548.5-18z"/><path fill="#6C95C9" d="M3.7 355.5s-24-278 50.5-317c0 0 44-38 156-38.5s254 42.5 274.5 90.5S502.2 120 516.2 253c0 0-1 46.5 31.5 73 0 0 50-100 127.5-30.5 0 0-74-6.5-74 60 0 0 1 49 74 48 0 0-15.5 27.5-51.5 24 0 0-43.5 9-71.5-53.5l-62.5 9.5s13 89.5 38 116.5c0 0-109-16.5-183-95 1-.5-215 46-341-49.5z"/><ellipse fill="#FFF" cx="114.7" cy="228" rx="71.5" ry="71.5"/><ellipse cx="105.2" cy="231" rx="46" ry="46"/><ellipse transform="rotate(128.332 118.344 216.425)" fill="#FFF" cx="118.3" cy="216.4" rx="13.5" ry="22.5"/><ellipse fill="#FFF" cx="270.7" cy="228" rx="71.5" ry="71.5"/><ellipse cx="261.2" cy="231" rx="46" ry="46"/><ellipse transform="rotate(128.332 272.967 214.69)" fill="#FFF" cx="273" cy="214.7" rx="13.5" ry="21"/><path d="M22.7 320.5S168.7 446 327.2 341c.5 0-145 83-304.5-20.5z"/><ellipse transform="rotate(91.476 206.567 30.522)" fill="#4B709F" cx="206.6" cy="30.5" rx="11" ry="40.5"/></svg>