<?xml version="1.0" encoding="utf-8"?>
<!-- Generator: Adobe Illustrator 18.0.0, SVG Export Plug-In . SVG Version: 6.00 Build 0)  -->
<!DOCTYPE svg PUBLIC "-//W3C//DTD SVG 1.1//EN" "http://www.w3.org/Graphics/SVG/1.1/DTD/svg11.dtd">
<svg version="1.1" id="Layer_1" xmlns="http://www.w3.org/2000/svg" xmlns:xlink="http://www.w3.org/1999/xlink" x="0px" y="0px"
	 viewBox="0 0 400 200" enable-background="new 0 0 400 200" xml:space="preserve">
<rect fill="#59CAEB" width="400" height="200"/>
<path fill="#C0D955" d="M6.7,198c0,0,15.4-11.3,9.3-27.7s-22.6-53.9-0.2-60.1c0,0-15.4,13.1,18.1,58.9
	C33.7,169.1,60.3,199.8,6.7,198z"/>
<path fill="#70A040" d="M71,131.1c0,0-23-5.6-24.1,11.8s-1.7,58.4-24.5,54.9c0,0,20.5-0.4,8.8-55.9C31.2,141.9,22.3,64.6,71,131.1z"
	/>
<path fill="#C0D955" d="M172.9,199c0,0,44.7-53.4-7.6-153c0,0,85.5,89.9,48,123.1L172.9,199z"/>
<path fill="#A5C965" d="M154.6,46.5c0,0-45.2,57,19.9,152c0,0-101-82.5-62.1-118.7L154.6,46.5z"/>
<path fill="#70A040" d="M230.3,56.9c0,0-66.9,28.6-55,143.1c0,0-49.4-120.7,2-134L230.3,56.9z"/>
<path fill="#C6DE83" d="M280.4,198c0,0,20.3-14.9,12.2-36.5s-29.7-71-0.3-79.2c0,0-20.3,17.2,23.8,77.6
	C316.1,159.9,351.1,200.4,280.4,198z"/>
</svg>
